<?xml version="1.0" standalone="no"?>
<!DOCTYPE svg PUBLIC "-//W3C//DTD SVG 20010904//EN"
 "http://www.w3.org/TR/2001/REC-SVG-20010904/DTD/svg10.dtd">
<svg version="1.0" xmlns="http://www.w3.org/2000/svg"
 width="360.000000pt" height="360.000000pt" viewBox="0 0 360.000000 360.000000"
 preserveAspectRatio="xMidYMid meet">
<metadata>
Created by potrace 1.11, written by Peter Selinger 2001-2013
</metadata>
<g transform="translate(0.000000,360.000000) scale(0.100000,-0.100000)"
fill="#000000" stroke="none">
<path d="M1618 3155 c-370 -53 -686 -237 -909 -530 -213 -280 -309 -634 -268
-980 72 -604 521 -1082 1119 -1192 127 -23 353 -23 480 0 598 110 1047 588
1119 1192 51 425 -106 852 -422 1152 -186 176 -439 303 -692 348 -128 23 -311
27 -427 10z m-254 -835 c197 -50 352 -193 408 -374 30 -98 30 -234 0 -331 -58
-188 -223 -335 -428 -381 -111 -24 -274 -16 -374 19 -234 83 -380 285 -380
527 0 264 175 481 439 545 86 21 244 19 335 -5z m1330 0 c43 -11 103 -33 134
-50 57 -30 152 -105 152 -119 0 -5 -36 -41 -80 -80 l-80 -73 -38 30 c-156 123
-389 117 -513 -15 -69 -71 -84 -114 -84 -233 0 -91 3 -111 24 -150 83 -160
269 -225 463 -164 l47 15 3 157 3 157 118 3 117 3 0 -223 0 -223 -43 -27
c-109 -69 -254 -108 -402 -108 -223 0 -405 93 -517 265 -111 171 -111 419 0
590 78 120 200 207 346 245 98 26 249 26 350 0z"/>
<path d="M1118 2110 c-61 -11 -141 -55 -180 -99 -58 -65 -83 -135 -83 -231 0
-70 5 -95 26 -140 51 -110 135 -173 253 -191 155 -24 294 42 364 174 24 47 27
62 27 157 0 95 -3 110 -27 157 -51 95 -129 152 -237 173 -60 11 -75 11 -143 0z"/>
</g>
</svg>
